<?xml version="1.0" standalone="no"?>
<!DOCTYPE svg PUBLIC "-//W3C//DTD SVG 20010904//EN"
 "http://www.w3.org/TR/2001/REC-SVG-20010904/DTD/svg10.dtd">
<svg version="1.0" xmlns="http://www.w3.org/2000/svg"
 width="260.000000pt" height="260.000000pt" viewBox="0 0 260.000000 260.000000"
 preserveAspectRatio="xMidYMid meet">
<metadata>
Created by potrace 1.11, written by Peter Selinger 2001-2013
</metadata>
<g transform="translate(0.000000,260.000000) scale(0.100000,-0.100000)"
fill="#000000" stroke="none">
<path d="M430 2297 c-30 -15 -45 -54 -36 -91 4 -18 23 -35 61 -57 56 -31 65
-45 43 -67 -16 -16 -48 -15 -68 3 -15 14 -19 13 -34 -4 -16 -18 -16 -20 10
-40 41 -32 98 -28 135 8 51 51 30 106 -60 153 -21 12 -31 24 -29 35 4 21 43
29 62 14 10 -8 17 -6 30 8 16 18 16 20 -6 35 -27 19 -74 20 -108 3z"/>
<path d="M684 2296 c-17 -8 -41 -28 -54 -45 -66 -94 -10 -216 106 -229 63 -7
104 13 104 49 0 28 -13 39 -24 20 -19 -29 -118 -15 -136 19 -16 30 -12 96 8
119 23 29 82 38 121 18 l31 -15 0 29 c0 22 -6 32 -26 39 -35 14 -93 12 -130
-4z"/>
<path d="M1164 2301 c-2 -2 -4 -15 -4 -28 0 -20 5 -23 35 -23 l35 0 0 -110 0
-110 30 0 30 0 0 110 0 110 35 0 c30 0 35 3 35 24 0 24 -2 25 -96 28 -53 2
-98 1 -100 -1z"/>
<path d="M1394 2301 c-2 -2 -4 -64 -4 -138 l0 -133 85 0 c84 0 85 0 85 25 0
23 -3 25 -50 25 -53 0 -51 -3 -50 58 0 4 22 7 48 8 43 1 47 3 50 27 3 26 2 27
-50 27 -50 0 -53 1 -53 25 0 23 3 25 53 25 48 0 52 2 52 24 0 24 -3 25 -81 28
-44 2 -83 1 -85 -1z"/>
<path d="M1614 2301 c-2 -2 -4 -64 -4 -138 l0 -133 30 0 29 0 3 90 3 90 68
-90 c59 -77 73 -90 98 -90 l29 0 0 135 0 135 -31 0 -31 0 4 -95 c3 -65 1 -90
-6 -78 -5 10 -37 54 -72 98 -50 65 -67 80 -89 80 -15 0 -29 -2 -31 -4z"/>
<path d="M2405 2298 c-30 -16 -45 -39 -45 -68 0 -29 23 -54 83 -89 22 -14 37
-30 37 -42 0 -26 -44 -36 -74 -16 -17 12 -26 13 -35 4 -46 -46 59 -88 128 -52
32 16 41 33 41 75 0 30 -29 59 -89 92 -21 12 -31 24 -29 35 4 22 43 29 63 13
11 -9 18 -8 32 5 16 17 16 19 -6 36 -26 21 -75 24 -106 7z"/>
<path d="M50 2275 c0 -22 4 -25 33 -25 l32 0 -3 -110 -3 -110 35 0 36 0 0 110
0 110 30 0 c25 0 30 4 30 25 0 25 0 25 -95 25 -95 0 -95 0 -95 -25z"/>
<path d="M280 2165 l0 -135 30 0 30 0 0 135 0 135 -30 0 -30 0 0 -135z"/>
<path d="M890 2165 l0 -135 30 0 c30 0 30 1 30 55 l0 55 60 0 60 0 0 -55 c0
-54 0 -55 30 -55 l30 0 0 135 0 135 -29 0 c-29 0 -30 -2 -33 -52 l-3 -53 -55
1 -55 0 -3 52 c-3 50 -4 52 -33 52 l-29 0 0 -135z"/>
<path d="M1930 2165 l0 -135 30 0 30 0 0 91 0 92 71 -92 c60 -78 74 -91 100
-91 l29 0 0 135 0 135 -31 0 -30 0 3 -90 c2 -50 2 -90 2 -90 -1 0 -32 41 -69
90 -61 83 -70 90 -101 90 l-34 0 0 -135z"/>
<path d="M2250 2165 l0 -135 30 0 30 0 0 135 0 135 -30 0 -30 0 0 -135z"/>
<path d="M2310 1743 c0 -138 1 -143 21 -143 19 0 20 5 17 95 -2 52 -1 95 2 95
3 0 43 -43 90 -94 47 -52 88 -95 93 -95 4 -1 7 60 7 134 0 113 -2 135 -15 135
-12 0 -15 -18 -15 -101 l0 -101 -63 68 c-35 38 -80 87 -100 109 l-36 40 -1
-142z"/>
<path d="M1370 1863 c0 -14 104 -263 110 -263 9 0 113 261 106 267 -15 16 -37
-15 -67 -96 -18 -50 -36 -91 -39 -91 -3 0 -21 42 -40 93 -24 61 -41 93 -53 95
-9 2 -17 0 -17 -5z"/>
<path d="M1620 1735 l0 -136 72 3 c46 2 73 7 76 16 3 9 -12 12 -52 12 l-56 0
0 49 0 50 53 3 c38 2 52 7 52 18 0 11 -13 15 -53 15 -50 0 -52 1 -52 28 0 15
-1 30 -2 35 -2 4 22 9 52 12 79 7 68 24 -17 28 l-73 3 0 -136z"/>
<path d="M1820 1735 c0 -113 2 -135 15 -135 12 0 15 14 16 63 l0 62 32 -39
c18 -22 41 -50 52 -64 12 -13 29 -23 38 -21 14 3 9 15 -28 61 -25 32 -45 60
-45 63 0 3 9 5 19 5 25 0 51 37 51 72 0 46 -31 68 -95 68 l-55 0 0 -135z m105
65 c0 -31 -3 -35 -32 -41 -40 -8 -43 -5 -43 43 0 39 0 39 38 36 35 -3 37 -5
37 -38z"/>
<path d="M2020 1735 l0 -135 70 0 c56 0 70 3 70 15 0 12 -13 15 -55 15 l-55 0
0 50 0 50 55 0 c49 0 55 2 55 21 0 18 -5 20 -52 18 l-53 -3 -3 37 -3 37 55 0
c43 0 56 3 56 15 0 12 -14 15 -70 15 l-70 0 0 -135z"/>
<path d="M2210 1735 c0 -128 1 -135 20 -135 19 0 20 7 20 135 0 128 -1 135
-20 135 -19 0 -20 -7 -20 -135z"/>
<path d="M177 1696 c-68 -30 -127 -116 -127 -186 0 -73 58 -153 132 -184 80
-34 174 -7 232 67 29 36 31 45 31 117 0 72 -2 81 -31 117 -57 72 -161 102
-237 69z"/>
<path d="M650 1648 c-88 -48 -114 -157 -53 -229 74 -87 200 -77 257 20 75 129
-72 279 -204 209z"/>
<path d="M1029 1497 c-19 -12 -42 -39 -52 -60 -17 -33 -17 -42 -5 -79 24 -78
116 -112 182 -69 84 56 73 178 -20 217 -46 19 -66 18 -105 -9z"/>
<path d="M1340 1313 c-42 -35 -54 -67 -40 -109 25 -73 110 -98 168 -49 40 33
48 74 26 120 -31 66 -101 83 -154 38z"/>
<path d="M1580 1120 c-27 -27 -26 -71 3 -98 30 -28 68 -28 95 1 44 46 14 117
-48 117 -17 0 -39 -9 -50 -20z"/>
<path d="M2074 989 c-10 -17 13 -36 27 -22 12 12 4 33 -11 33 -5 0 -12 -5 -16
-11z"/>
<path d="M1738 968 c-37 -31 -20 -88 27 -88 49 0 72 52 37 83 -22 20 -43 22
-64 5z"/>
<path d="M2013 934 c-3 -8 -1 -20 6 -27 14 -14 47 15 37 32 -10 16 -36 13 -43
-5z"/>
<path d="M1934 876 c-10 -26 4 -48 28 -44 17 2 23 10 23 28 0 18 -6 26 -23 28
-13 2 -25 -3 -28 -12z"/>
<path d="M1841 816 c-7 -8 -11 -25 -9 -38 2 -18 9 -23 32 -23 36 0 56 27 40
53 -14 22 -48 27 -63 8z"/>
<path d="M400 655 c-16 -19 -6 -45 19 -45 25 0 34 26 15 45 -19 18 -19 18 -34
0z"/>
<path d="M470 655 c-7 -8 -10 -22 -6 -30 7 -20 42 -19 50 1 8 22 8 22 -13 33
-14 8 -22 7 -31 -4z"/>
<path d="M50 435 l0 -148 66 6 c83 6 118 29 122 80 2 28 -2 39 -21 53 -23 18
-24 19 -4 34 26 21 25 66 -2 93 -16 17 -36 22 -91 25 l-70 4 0 -147z m115 59
c0 -12 -8 -20 -22 -22 -20 -3 -23 1 -23 27 0 27 2 30 23 22 12 -5 22 -17 22
-27z m10 -101 c7 -20 -12 -43 -36 -43 -15 0 -19 7 -19 34 0 30 2 33 24 29 14
-3 27 -12 31 -20z"/>
<path d="M330 464 c0 -114 0 -116 29 -145 26 -26 36 -29 91 -29 54 0 65 3 90
28 33 33 43 82 38 187 l-3 70 -32 3 -33 3 0 -93 c0 -112 -13 -141 -63 -136
-44 4 -57 35 -57 141 l0 87 -30 0 -30 0 0 -116z"/>
<path d="M680 435 l0 -145 30 0 30 0 0 60 0 60 60 0 60 0 0 -60 0 -60 30 0 30
0 0 135 c0 74 1 138 3 143 1 4 -13 8 -30 10 l-33 3 0 -55 0 -56 -60 0 -60 0 0
55 c0 54 0 55 -30 55 l-30 0 0 -145z"/>
<path d="M1024 567 c-2 -7 -3 -71 -2 -143 l3 -129 80 0 c80 0 80 0 83 28 3 26
2 27 -47 27 l-51 0 0 115 0 115 -30 0 c-17 0 -33 -6 -36 -13z"/>
<path d="M1262 438 l3 -143 85 0 85 0 3 28 c3 27 2 27 -52 27 -55 0 -56 0 -56
29 0 29 2 30 53 33 48 3 52 5 55 31 3 27 2 27 -52 27 -53 0 -56 1 -56 25 0 24
3 25 55 25 54 0 55 0 55 30 l0 30 -90 0 -91 0 3 -142z"/>
<path d="M1532 438 l3 -143 33 -3 32 -3 0 63 0 63 34 -60 c30 -55 36 -60 69
-63 21 -2 37 0 37 5 0 4 -16 32 -34 62 l-34 55 29 27 c31 29 36 53 18 92 -16
34 -49 47 -125 47 l-65 0 3 -142z m102 82 c44 -16 29 -60 -20 -60 -9 0 -14 11
-14 35 0 39 -1 39 34 25z"/>
<path d="M1790 550 c0 -28 3 -30 35 -30 l35 0 0 -115 0 -115 35 0 35 0 0 115
0 115 35 0 c32 0 35 2 35 30 l0 30 -105 0 -105 0 0 -30z"/>
<path d="M2127 573 c-6 -10 -107 -273 -107 -279 0 -2 16 -4 36 -4 30 0 37 4
45 30 10 28 14 30 63 30 48 0 52 -2 63 -30 10 -26 16 -30 48 -30 42 0 45 -15
-24 160 l-48 125 -36 3 c-19 2 -37 -1 -40 -5z m62 -150 c1 -8 -11 -13 -28 -13
l-30 0 16 47 16 47 13 -34 c7 -19 13 -41 13 -47z"/>
<path d="M2380 435 l0 -145 80 0 80 0 0 30 c0 29 -2 30 -45 30 l-45 0 0 115 0
115 -35 0 -35 0 0 -145z"/>
</g>
</svg>
